<?xml version="1.0" encoding="UTF-8"?>
<svg xmlns="http://www.w3.org/2000/svg" xmlns:xlink="http://www.w3.org/1999/xlink" width="75px" height="75px" viewBox="0 0 75 75" version="1.1">
<g id="surface1">
<path style=" stroke:none;fill-rule:nonzero;fill:rgb(100%,0%,0%);fill-opacity:1;" d="M 63.988281 36.148438 C 64.007812 36.164062 64.023438 36.179688 64.039062 36.195312 C 64.277344 36.402344 64.488281 36.617188 64.679688 36.871094 C 64.714844 36.914062 64.714844 36.914062 64.75 36.953125 C 65.363281 37.710938 65.714844 38.644531 65.851562 39.601562 C 65.851562 39.621094 65.855469 39.640625 65.859375 39.660156 C 65.933594 40.230469 65.902344 40.835938 65.789062 41.398438 C 65.78125 41.4375 65.78125 41.4375 65.777344 41.472656 C 65.578125 42.453125 65.09375 43.371094 64.394531 44.082031 C 64.347656 44.132812 64.300781 44.179688 64.253906 44.230469 C 63.308594 45.210938 61.9375 45.792969 60.582031 45.824219 C 60.070312 45.832031 59.570312 45.8125 59.070312 45.691406 C 59.042969 45.683594 59.015625 45.675781 58.988281 45.671875 C 58.605469 45.578125 58.25 45.445312 57.898438 45.269531 C 57.878906 45.257812 57.855469 45.25 57.832031 45.238281 C 56.550781 44.605469 55.582031 43.464844 55.117188 42.117188 C 54.648438 40.691406 54.757812 39.148438 55.410156 37.800781 C 55.5625 37.503906 55.746094 37.222656 55.949219 36.960938 C 55.96875 36.933594 55.988281 36.910156 56.007812 36.882812 C 56.894531 35.746094 58.234375 35.019531 59.660156 34.839844 C 61.230469 34.683594 62.792969 35.089844 63.988281 36.148438 Z M 62.488281 37.261719 C 62.46875 37.277344 62.445312 37.289062 62.421875 37.304688 C 62.304688 37.410156 62.21875 37.535156 62.125 37.660156 C 62.105469 37.6875 62.085938 37.714844 62.0625 37.742188 C 61.917969 37.941406 61.773438 38.144531 61.628906 38.34375 C 61.402344 38.664062 61.171875 38.980469 60.9375 39.296875 C 60.769531 39.523438 60.601562 39.753906 60.4375 39.984375 C 60.390625 40.050781 60.339844 40.117188 60.292969 40.183594 C 60.277344 40.207031 60.261719 40.230469 60.242188 40.253906 C 60.210938 40.296875 60.179688 40.339844 60.148438 40.386719 C 60.0625 40.503906 59.976562 40.625 59.890625 40.742188 C 59.875 40.769531 59.855469 40.792969 59.839844 40.820312 C 59.804688 40.867188 59.769531 40.917969 59.738281 40.964844 C 59.722656 40.988281 59.707031 41.007812 59.691406 41.03125 C 59.675781 41.050781 59.664062 41.070312 59.648438 41.089844 C 59.636719 41.101562 59.625 41.117188 59.609375 41.128906 C 59.519531 41.128906 59.519531 41.128906 59.46875 41.089844 C 59.441406 41.058594 59.441406 41.058594 59.414062 41.027344 C 59.394531 41.007812 59.375 40.984375 59.355469 40.964844 C 59.335938 40.941406 59.3125 40.917969 59.292969 40.894531 C 59.269531 40.871094 59.246094 40.847656 59.226562 40.824219 C 59.09375 40.679688 58.960938 40.53125 58.828125 40.382812 C 58.75 40.300781 58.667969 40.21875 58.585938 40.136719 C 58.527344 40.078125 58.476562 40.019531 58.421875 39.953125 C 58.257812 39.765625 58.085938 39.648438 57.832031 39.617188 C 57.601562 39.640625 57.410156 39.726562 57.253906 39.902344 C 57.117188 40.085938 57.058594 40.269531 57.089844 40.5 C 57.183594 40.839844 57.515625 41.113281 57.753906 41.363281 C 57.871094 41.484375 57.980469 41.609375 58.089844 41.734375 C 58.164062 41.816406 58.238281 41.894531 58.3125 41.976562 C 58.34375 42.007812 58.375 42.042969 58.40625 42.078125 C 58.421875 42.09375 58.4375 42.109375 58.453125 42.128906 C 58.527344 42.210938 58.605469 42.292969 58.679688 42.375 C 58.710938 42.40625 58.738281 42.441406 58.769531 42.472656 C 58.949219 42.667969 58.949219 42.667969 58.996094 42.714844 C 59.023438 42.75 59.054688 42.78125 59.085938 42.8125 C 59.164062 42.898438 59.242188 42.980469 59.320312 43.066406 C 59.335938 43.085938 59.351562 43.101562 59.367188 43.121094 C 59.398438 43.152344 59.429688 43.1875 59.460938 43.21875 C 59.539062 43.304688 59.617188 43.390625 59.699219 43.46875 C 59.90625 43.222656 60.089844 42.960938 60.277344 42.703125 C 60.359375 42.585938 60.441406 42.472656 60.523438 42.359375 C 60.558594 42.316406 60.589844 42.269531 60.621094 42.226562 C 60.6875 42.136719 60.753906 42.046875 60.816406 41.953125 C 60.832031 41.933594 60.851562 41.910156 60.867188 41.886719 C 60.898438 41.84375 60.929688 41.796875 60.964844 41.753906 C 61.042969 41.640625 61.125 41.527344 61.207031 41.417969 C 61.390625 41.160156 61.574219 40.90625 61.761719 40.652344 C 61.929688 40.425781 62.097656 40.195312 62.261719 39.96875 C 62.34375 39.855469 62.425781 39.742188 62.503906 39.628906 C 62.519531 39.609375 62.539062 39.585938 62.554688 39.5625 C 62.636719 39.449219 62.71875 39.335938 62.796875 39.222656 C 62.878906 39.113281 62.960938 39 63.042969 38.886719 C 63.074219 38.84375 63.105469 38.796875 63.140625 38.75 C 63.5 38.292969 63.5 38.292969 63.613281 37.738281 C 63.578125 37.519531 63.460938 37.371094 63.296875 37.234375 C 63.046875 37.074219 62.730469 37.09375 62.488281 37.261719 Z M 62.488281 37.261719 "/>
<path style=" stroke:none;fill-rule:nonzero;fill:rgb(100%,0%,0%);fill-opacity:1;" d="M 53.835938 21.605469 C 53.859375 21.621094 53.882812 21.640625 53.910156 21.660156 C 53.929688 21.675781 53.949219 21.691406 53.972656 21.707031 C 54.136719 21.835938 54.238281 22.003906 54.34375 22.1875 C 54.503906 22.464844 54.679688 22.667969 54.996094 22.757812 C 55.203125 22.804688 55.40625 22.804688 55.621094 22.800781 C 55.851562 22.796875 56.078125 22.800781 56.308594 22.828125 C 56.320312 22.941406 56.328125 23.054688 56.339844 23.167969 C 56.339844 23.199219 56.34375 23.230469 56.347656 23.261719 C 56.363281 23.46875 56.375 23.671875 56.386719 23.878906 C 56.386719 23.90625 56.390625 23.929688 56.390625 23.957031 C 56.394531 24.023438 56.398438 24.085938 56.398438 24.148438 C 56.4375 24.148438 56.472656 24.148438 56.507812 24.148438 C 56.84375 24.148438 57.183594 24.144531 57.519531 24.144531 C 57.691406 24.144531 57.867188 24.144531 58.039062 24.144531 C 58.207031 24.140625 58.375 24.140625 58.542969 24.140625 C 58.605469 24.140625 58.667969 24.140625 58.734375 24.140625 C 59.582031 24.132812 59.582031 24.132812 59.859375 24.363281 C 60.019531 24.542969 60.09375 24.765625 60.09375 25 C 60.09375 25.050781 60.09375 25.050781 60.09375 25.101562 C 60.09375 25.136719 60.09375 25.171875 60.09375 25.210938 C 60.09375 25.265625 60.09375 25.265625 60.09375 25.324219 C 60.09375 25.433594 60.09375 25.539062 60.09375 25.644531 C 60.09375 25.761719 60.09375 25.875 60.09375 25.988281 C 60.09375 26.214844 60.09375 26.441406 60.09375 26.664062 C 60.09375 26.847656 60.09375 27.03125 60.09375 27.214844 C 60.09375 27.730469 60.09375 28.25 60.09375 28.769531 C 60.09375 28.808594 60.09375 28.808594 60.09375 28.851562 C 60.09375 28.894531 60.09375 28.894531 60.09375 28.9375 C 60.09375 29.390625 60.097656 29.84375 60.097656 30.296875 C 60.097656 30.761719 60.097656 31.230469 60.097656 31.695312 C 60.097656 31.957031 60.097656 32.21875 60.097656 32.480469 C 60.097656 32.703125 60.097656 32.925781 60.097656 33.144531 C 60.097656 33.261719 60.097656 33.375 60.097656 33.488281 C 60.097656 33.609375 60.097656 33.734375 60.097656 33.855469 C 60.097656 33.890625 60.097656 33.929688 60.097656 33.964844 C 60.097656 34 60.097656 34.03125 60.097656 34.066406 C 60.097656 34.109375 60.097656 34.109375 60.097656 34.152344 C 60.089844 34.238281 60.070312 34.300781 60.03125 34.378906 C 59.859375 34.445312 59.695312 34.460938 59.519531 34.410156 C 59.386719 34.3125 59.339844 34.207031 59.308594 34.050781 C 59.300781 33.9375 59.304688 33.828125 59.304688 33.71875 C 59.304688 33.683594 59.304688 33.652344 59.304688 33.617188 C 59.304688 33.511719 59.304688 33.402344 59.304688 33.292969 C 59.304688 33.214844 59.304688 33.140625 59.304688 33.0625 C 59.308594 32.902344 59.308594 32.742188 59.308594 32.578125 C 59.308594 32.355469 59.3125 32.128906 59.3125 31.902344 C 59.3125 31.492188 59.3125 31.085938 59.316406 30.675781 C 59.316406 30.496094 59.316406 30.3125 59.316406 30.132812 C 59.320312 29.773438 59.320312 29.414062 59.324219 29.058594 C 59.324219 28.710938 59.324219 28.367188 59.328125 28.019531 C 59.328125 27.996094 59.328125 27.976562 59.328125 27.953125 C 59.328125 27.84375 59.328125 27.738281 59.328125 27.628906 C 59.332031 26.738281 59.335938 25.847656 59.339844 24.960938 C 58.371094 24.960938 57.398438 24.960938 56.398438 24.960938 C 56.378906 25.277344 56.359375 25.59375 56.339844 25.921875 C 56.332031 25.988281 56.320312 26.058594 56.308594 26.128906 C 53.65625 26.128906 51.003906 26.128906 48.269531 26.128906 C 48.179688 25.261719 48.179688 25.261719 48.179688 24.960938 C 47.230469 24.960938 46.277344 24.960938 45.300781 24.960938 C 45.300781 30.910156 45.300781 36.859375 45.300781 42.988281 C 48.46875 42.988281 51.636719 42.988281 54.898438 42.988281 C 54.933594 43.359375 54.933594 43.359375 54.933594 43.519531 C 54.929688 43.566406 54.929688 43.566406 54.929688 43.613281 C 54.929688 43.644531 54.929688 43.644531 54.929688 43.679688 C 54.734375 43.789062 54.550781 43.78125 54.332031 43.78125 C 54.273438 43.78125 54.273438 43.78125 54.214844 43.78125 C 54.105469 43.78125 53.996094 43.78125 53.886719 43.78125 C 53.769531 43.78125 53.652344 43.78125 53.535156 43.78125 C 53.308594 43.78125 53.078125 43.78125 52.847656 43.78125 C 52.664062 43.78125 52.476562 43.78125 52.289062 43.78125 C 52.261719 43.78125 52.238281 43.78125 52.210938 43.78125 C 52.15625 43.78125 52.101562 43.78125 52.046875 43.78125 C 51.542969 43.78125 51.035156 43.78125 50.53125 43.78125 C 50.097656 43.78125 49.664062 43.78125 49.230469 43.78125 C 48.726562 43.78125 48.222656 43.78125 47.71875 43.78125 C 47.664062 43.78125 47.613281 43.78125 47.558594 43.78125 C 47.53125 43.78125 47.503906 43.78125 47.476562 43.78125 C 47.292969 43.78125 47.105469 43.78125 46.921875 43.78125 C 46.691406 43.78125 46.464844 43.78125 46.238281 43.78125 C 46.125 43.78125 46.007812 43.78125 45.890625 43.78125 C 45.765625 43.78125 45.640625 43.78125 45.515625 43.78125 C 45.480469 43.78125 45.441406 43.78125 45.40625 43.78125 C 45.128906 43.78125 44.890625 43.746094 44.683594 43.550781 C 44.445312 43.277344 44.449219 42.882812 44.453125 42.539062 C 44.453125 42.503906 44.453125 42.46875 44.453125 42.433594 C 44.453125 42.320312 44.457031 42.210938 44.457031 42.097656 C 44.457031 42.019531 44.457031 41.941406 44.457031 41.859375 C 44.457031 41.71875 44.457031 41.574219 44.457031 41.429688 C 44.460938 41.085938 44.460938 40.746094 44.460938 40.402344 C 44.460938 40.226562 44.460938 40.050781 44.460938 39.875 C 44.460938 39.804688 44.460938 39.730469 44.460938 39.65625 C 44.460938 39.621094 44.460938 39.585938 44.460938 39.546875 C 44.460938 39.429688 44.460938 39.3125 44.460938 39.195312 C 44.460938 38.230469 44.460938 37.265625 44.464844 36.300781 C 44.464844 36.277344 44.464844 36.253906 44.464844 36.230469 C 44.464844 35.738281 44.464844 35.242188 44.464844 34.75 C 44.464844 34.507812 44.464844 34.269531 44.464844 34.027344 C 44.464844 33.992188 44.464844 33.992188 44.464844 33.953125 C 44.46875 33.175781 44.46875 32.398438 44.46875 31.617188 C 44.46875 30.8125 44.46875 30.007812 44.46875 29.203125 C 44.472656 29.089844 44.472656 28.976562 44.472656 28.863281 C 44.472656 28.839844 44.472656 28.816406 44.472656 28.796875 C 44.472656 28.4375 44.472656 28.078125 44.472656 27.71875 C 44.472656 27.359375 44.472656 27 44.472656 26.640625 C 44.472656 26.445312 44.472656 26.25 44.472656 26.058594 C 44.472656 25.878906 44.472656 25.699219 44.472656 25.523438 C 44.472656 25.457031 44.472656 25.394531 44.472656 25.328125 C 44.472656 24.660156 44.472656 24.660156 44.664062 24.40625 C 44.941406 24.183594 45.210938 24.144531 45.558594 24.148438 C 45.585938 24.148438 45.613281 24.148438 45.644531 24.148438 C 45.738281 24.148438 45.832031 24.148438 45.925781 24.148438 C 45.988281 24.148438 46.054688 24.148438 46.117188 24.148438 C 46.289062 24.148438 46.460938 24.148438 46.632812 24.148438 C 46.804688 24.148438 46.980469 24.148438 47.15625 24.148438 C 47.496094 24.148438 47.839844 24.148438 48.179688 24.148438 C 48.179688 24.117188 48.179688 24.117188 48.183594 24.082031 C 48.195312 23.664062 48.210938 23.246094 48.238281 22.828125 C 48.257812 22.832031 48.277344 22.832031 48.296875 22.832031 C 48.5 22.835938 48.703125 22.839844 48.90625 22.839844 C 48.980469 22.839844 49.058594 22.839844 49.132812 22.84375 C 49.523438 22.871094 49.523438 22.871094 49.886719 22.761719 C 49.980469 22.660156 50.023438 22.542969 50.070312 22.410156 C 50.109375 22.347656 50.109375 22.347656 50.148438 22.296875 C 50.171875 22.269531 50.191406 22.242188 50.214844 22.210938 C 51.164062 21.007812 52.546875 20.6875 53.835938 21.605469 Z M 51.148438 22.320312 C 51.132812 22.335938 51.117188 22.351562 51.097656 22.367188 C 50.84375 22.636719 50.519531 23.234375 50.519531 23.609375 C 50.015625 23.609375 49.511719 23.609375 48.988281 23.609375 C 48.988281 23.832031 48.988281 24.050781 48.984375 24.28125 C 48.984375 24.347656 48.984375 24.417969 48.984375 24.488281 C 48.984375 24.542969 48.984375 24.601562 48.984375 24.65625 C 48.984375 24.683594 48.984375 24.710938 48.984375 24.742188 C 48.984375 24.9375 49.003906 25.128906 49.050781 25.320312 C 49.105469 25.375 49.179688 25.355469 49.253906 25.355469 C 49.289062 25.355469 49.289062 25.355469 49.328125 25.355469 C 49.355469 25.355469 49.382812 25.355469 49.410156 25.355469 C 49.496094 25.355469 49.585938 25.355469 49.675781 25.351562 C 49.738281 25.351562 49.800781 25.351562 49.867188 25.351562 C 50.039062 25.351562 50.210938 25.351562 50.386719 25.351562 C 50.566406 25.351562 50.746094 25.351562 50.925781 25.351562 C 51.269531 25.351562 51.613281 25.351562 51.953125 25.351562 C 52.34375 25.351562 52.734375 25.351562 53.125 25.351562 C 53.925781 25.351562 54.726562 25.351562 55.53125 25.351562 C 55.53125 24.757812 55.53125 24.160156 55.53125 23.550781 C 55.015625 23.550781 54.5 23.550781 53.96875 23.550781 C 53.960938 23.460938 53.949219 23.371094 53.941406 23.28125 C 53.816406 22.789062 53.59375 22.34375 53.164062 22.050781 C 52.488281 21.679688 51.695312 21.785156 51.148438 22.320312 Z M 51.148438 22.320312 "/>
<path style=" stroke:none;fill-rule:nonzero;fill:rgb(100%,0%,0%);fill-opacity:1;" d="M 45.871094 47.039062 C 46.691406 47.039062 47.511719 47.039062 48.359375 47.039062 C 48.730469 48 49.09375 48.960938 49.457031 49.921875 C 49.535156 50.132812 49.613281 50.34375 49.691406 50.550781 C 49.730469 50.648438 49.765625 50.746094 49.800781 50.84375 C 49.816406 50.882812 49.832031 50.925781 49.847656 50.964844 C 50.113281 51.660156 50.113281 51.660156 50.101562 51.929688 C 50.121094 51.929688 50.140625 51.929688 50.160156 51.929688 C 50.164062 51.898438 50.164062 51.898438 50.167969 51.867188 C 50.203125 51.671875 50.25 51.484375 50.316406 51.292969 C 50.324219 51.261719 50.335938 51.230469 50.347656 51.199219 C 50.460938 50.863281 50.589844 50.53125 50.71875 50.203125 C 50.898438 49.742188 51.074219 49.277344 51.246094 48.8125 C 51.46875 48.222656 51.699219 47.628906 51.929688 47.039062 C 52.730469 47.039062 53.535156 47.039062 54.359375 47.039062 C 54.359375 49.277344 54.359375 51.515625 54.359375 53.820312 C 53.804688 53.820312 53.25 53.820312 52.679688 53.820312 C 52.679688 52.097656 52.679688 50.375 52.679688 48.601562 C 52.605469 48.882812 52.605469 48.882812 52.53125 49.171875 C 52.496094 49.269531 52.464844 49.363281 52.425781 49.460938 C 52.417969 49.484375 52.410156 49.507812 52.398438 49.535156 C 52.367188 49.613281 52.335938 49.691406 52.308594 49.773438 C 52.285156 49.828125 52.261719 49.886719 52.242188 49.945312 C 52.191406 50.070312 52.144531 50.195312 52.097656 50.320312 C 51.976562 50.636719 51.855469 50.953125 51.734375 51.269531 C 51.667969 51.453125 51.597656 51.636719 51.527344 51.820312 C 51.429688 52.078125 51.332031 52.335938 51.234375 52.59375 C 51.179688 52.734375 51.125 52.875 51.074219 53.015625 C 51.046875 53.082031 51.023438 53.148438 51 53.214844 C 50.964844 53.304688 50.929688 53.394531 50.894531 53.488281 C 50.878906 53.527344 50.878906 53.527344 50.863281 53.570312 C 50.847656 53.605469 50.847656 53.605469 50.835938 53.644531 C 50.828125 53.664062 50.820312 53.6875 50.8125 53.707031 C 50.789062 53.761719 50.789062 53.761719 50.761719 53.820312 C 50.292969 53.820312 49.828125 53.820312 49.351562 53.820312 C 49.09375 53.167969 48.835938 52.519531 48.585938 51.867188 C 48.429688 51.460938 48.269531 51.054688 48.113281 50.652344 C 48.03125 50.453125 47.953125 50.25 47.875 50.050781 C 47.832031 49.9375 47.789062 49.824219 47.742188 49.710938 C 47.597656 49.347656 47.480469 48.992188 47.398438 48.609375 C 47.390625 48.585938 47.386719 48.5625 47.382812 48.535156 C 47.378906 48.515625 47.375 48.5 47.371094 48.480469 C 47.375 48.53125 47.375 48.53125 47.375 48.585938 C 47.40625 49.109375 47.402344 49.628906 47.402344 50.152344 C 47.402344 50.28125 47.402344 50.410156 47.402344 50.539062 C 47.402344 50.785156 47.402344 51.027344 47.402344 51.273438 C 47.402344 51.550781 47.402344 51.828125 47.402344 52.105469 C 47.402344 52.675781 47.402344 53.25 47.398438 53.820312 C 46.894531 53.820312 46.390625 53.820312 45.871094 53.820312 C 45.871094 51.582031 45.871094 49.34375 45.871094 47.039062 Z M 52.710938 48.328125 C 52.738281 48.449219 52.738281 48.449219 52.738281 48.449219 Z M 52.710938 48.328125 "/>
<path style=" stroke:none;fill-rule:nonzero;fill:rgb(100%,0%,0%);fill-opacity:1;" d="M 21.75 24.433594 C 21.800781 24.480469 21.847656 24.523438 21.898438 24.570312 C 21.960938 24.632812 21.960938 24.632812 22.035156 24.6875 C 22.605469 25.15625 22.898438 25.960938 22.980469 26.671875 C 22.988281 26.808594 22.988281 26.945312 22.988281 27.082031 C 22.988281 27.121094 22.988281 27.15625 22.988281 27.195312 C 22.980469 27.96875 22.746094 28.722656 22.230469 29.308594 C 22.207031 29.335938 22.1875 29.363281 22.167969 29.386719 C 21.449219 30.230469 20.335938 30.625 19.261719 30.71875 C 19.171875 30.722656 19.085938 30.726562 19 30.726562 C 18.964844 30.726562 18.964844 30.726562 18.925781 30.726562 C 18.851562 30.726562 18.773438 30.726562 18.699219 30.726562 C 18.671875 30.726562 18.644531 30.726562 18.617188 30.726562 C 18.226562 30.726562 17.84375 30.714844 17.460938 30.628906 C 17.425781 30.621094 17.425781 30.621094 17.386719 30.613281 C 16.40625 30.402344 15.46875 29.859375 14.910156 29.011719 C 14.4375 28.21875 14.316406 27.269531 14.515625 26.371094 C 14.746094 25.445312 15.304688 24.703125 16.113281 24.199219 C 17.714844 23.25 20.269531 23.21875 21.75 24.433594 Z M 17.078125 25.574219 C 16.640625 26.074219 16.492188 26.699219 16.523438 27.355469 C 16.570312 27.925781 16.78125 28.433594 17.191406 28.839844 C 17.75 29.316406 18.429688 29.390625 19.140625 29.339844 C 19.707031 29.273438 20.160156 28.976562 20.519531 28.546875 C 20.625 28.398438 20.699219 28.25 20.761719 28.078125 C 20.773438 28.046875 20.785156 28.015625 20.796875 27.984375 C 21 27.316406 20.941406 26.53125 20.621094 25.910156 C 20.367188 25.449219 19.945312 25.136719 19.441406 24.988281 C 18.617188 24.792969 17.671875 24.933594 17.078125 25.574219 Z M 17.078125 25.574219 "/>
<path style=" stroke:none;fill-rule:nonzero;fill:rgb(100%,0%,0%);fill-opacity:1;" d="M 33.359375 23.671875 C 34.25 23.667969 34.25 23.667969 35.15625 23.664062 C 35.433594 23.664062 35.433594 23.664062 35.71875 23.660156 C 35.949219 23.660156 35.949219 23.660156 36.058594 23.660156 C 36.132812 23.660156 36.207031 23.660156 36.28125 23.660156 C 37.210938 23.65625 38.417969 23.652344 39.148438 24.328125 C 39.167969 24.347656 39.1875 24.363281 39.207031 24.378906 C 39.480469 24.632812 39.640625 24.980469 39.664062 25.351562 C 39.671875 25.628906 39.675781 25.894531 39.570312 26.160156 C 39.558594 26.1875 39.546875 26.21875 39.535156 26.246094 C 39.300781 26.769531 38.824219 27.113281 38.308594 27.328125 C 38.191406 27.375 38.070312 27.414062 37.949219 27.449219 C 37.863281 27.472656 37.863281 27.472656 37.828125 27.511719 C 37.851562 27.519531 37.875 27.53125 37.898438 27.539062 C 38.429688 27.792969 38.835938 28.226562 39.1875 28.691406 C 39.28125 28.816406 39.378906 28.933594 39.480469 29.054688 C 39.605469 29.207031 39.734375 29.363281 39.855469 29.519531 C 39.980469 29.679688 40.105469 29.835938 40.234375 29.992188 C 40.253906 30.015625 40.269531 30.035156 40.289062 30.058594 C 40.386719 30.175781 40.386719 30.175781 40.480469 30.289062 C 40.515625 30.332031 40.550781 30.375 40.585938 30.417969 C 40.605469 30.441406 40.625 30.464844 40.640625 30.488281 C 40.679688 30.539062 40.679688 30.539062 40.679688 30.601562 C 40.386719 30.609375 40.09375 30.613281 39.800781 30.617188 C 39.667969 30.617188 39.53125 30.621094 39.394531 30.625 C 39.261719 30.628906 39.132812 30.628906 39 30.632812 C 38.949219 30.632812 38.902344 30.632812 38.851562 30.636719 C 38.460938 30.648438 38.460938 30.648438 38.3125 30.527344 C 38.242188 30.445312 38.183594 30.363281 38.128906 30.269531 C 38.101562 30.230469 38.070312 30.191406 38.039062 30.152344 C 38.011719 30.113281 37.984375 30.078125 37.957031 30.042969 C 37.925781 30 37.894531 29.957031 37.863281 29.917969 C 37.847656 29.894531 37.832031 29.875 37.816406 29.851562 C 37.722656 29.730469 37.628906 29.605469 37.535156 29.480469 C 37.441406 29.359375 37.351562 29.238281 37.257812 29.117188 C 36.753906 28.390625 36.753906 28.390625 36 27.988281 C 35.78125 27.980469 35.5625 27.96875 35.339844 27.960938 C 35.339844 28.832031 35.339844 29.703125 35.339844 30.601562 C 34.6875 30.601562 34.03125 30.601562 33.359375 30.601562 C 33.359375 28.3125 33.359375 26.027344 33.359375 23.671875 Z M 35.339844 24.871094 C 35.339844 25.492188 35.339844 26.117188 35.339844 26.761719 C 35.507812 26.761719 35.679688 26.765625 35.855469 26.765625 C 35.933594 26.765625 35.933594 26.765625 36.011719 26.769531 C 36.503906 26.773438 36.957031 26.710938 37.328125 26.363281 C 37.535156 26.148438 37.574219 25.925781 37.570312 25.636719 C 37.550781 25.429688 37.464844 25.269531 37.3125 25.128906 C 37.023438 24.90625 36.648438 24.859375 36.296875 24.863281 C 36.257812 24.863281 36.257812 24.863281 36.222656 24.863281 C 36.132812 24.863281 36.042969 24.867188 35.953125 24.867188 C 35.75 24.867188 35.546875 24.867188 35.339844 24.871094 Z M 35.339844 24.871094 "/>
<path style=" stroke:none;fill-rule:nonzero;fill:rgb(100%,0%,0%);fill-opacity:1;" d="M 21.71875 47.039062 C 22.324219 47.039062 22.929688 47.039062 23.550781 47.039062 C 23.886719 47.480469 23.886719 47.480469 24.042969 47.710938 C 24.164062 47.890625 24.289062 48.066406 24.421875 48.238281 C 24.550781 48.410156 24.675781 48.585938 24.796875 48.765625 C 24.929688 48.964844 25.070312 49.160156 25.214844 49.351562 C 25.339844 49.515625 25.457031 49.679688 25.574219 49.84375 C 25.683594 50 25.792969 50.15625 25.90625 50.308594 C 26.03125 50.484375 26.160156 50.660156 26.285156 50.839844 C 26.296875 50.855469 26.308594 50.875 26.324219 50.894531 C 26.480469 51.117188 26.636719 51.34375 26.789062 51.570312 C 26.800781 50.074219 26.808594 48.582031 26.820312 47.039062 C 27.34375 47.039062 27.871094 47.039062 28.410156 47.039062 C 28.410156 49.277344 28.410156 51.515625 28.410156 53.820312 C 27.84375 53.820312 27.28125 53.820312 26.699219 53.820312 C 26.558594 53.640625 26.417969 53.46875 26.289062 53.28125 C 26.257812 53.234375 26.226562 53.191406 26.195312 53.148438 C 26.171875 53.113281 26.171875 53.113281 26.148438 53.078125 C 26.070312 52.964844 25.988281 52.855469 25.90625 52.742188 C 25.890625 52.71875 25.875 52.695312 25.859375 52.675781 C 25.824219 52.628906 25.792969 52.582031 25.757812 52.539062 C 25.675781 52.425781 25.597656 52.3125 25.515625 52.199219 C 25.484375 52.15625 25.449219 52.109375 25.417969 52.066406 C 25.351562 51.976562 25.289062 51.886719 25.222656 51.796875 C 25.207031 51.773438 25.191406 51.75 25.171875 51.726562 C 25.140625 51.683594 25.109375 51.636719 25.078125 51.59375 C 24.992188 51.480469 24.910156 51.363281 24.828125 51.25 C 24.671875 51.03125 24.511719 50.8125 24.355469 50.589844 C 24.253906 50.449219 24.152344 50.308594 24.050781 50.167969 C 24.027344 50.132812 24.027344 50.132812 24 50.097656 C 23.914062 49.980469 23.828125 49.863281 23.742188 49.742188 C 23.726562 49.71875 23.707031 49.695312 23.691406 49.671875 C 23.65625 49.625 23.625 49.582031 23.59375 49.535156 C 23.578125 49.515625 23.5625 49.492188 23.546875 49.472656 C 23.53125 49.453125 23.519531 49.4375 23.507812 49.417969 C 23.4375 49.316406 23.375 49.214844 23.308594 49.109375 C 23.308594 50.664062 23.308594 52.21875 23.308594 53.820312 C 22.785156 53.820312 22.261719 53.820312 21.71875 53.820312 C 21.71875 51.582031 21.71875 49.34375 21.71875 47.039062 Z M 21.71875 47.039062 "/>
<path style=" stroke:none;fill-rule:nonzero;fill:rgb(100%,0%,0%);fill-opacity:1;" d="M 24.300781 23.671875 C 24.953125 23.671875 25.605469 23.671875 26.28125 23.671875 C 26.28125 23.972656 26.28125 24.273438 26.285156 24.585938 C 26.285156 24.777344 26.285156 24.96875 26.285156 25.160156 C 26.289062 25.464844 26.289062 25.769531 26.289062 26.074219 C 26.292969 26.296875 26.292969 26.515625 26.292969 26.738281 C 26.292969 26.855469 26.292969 26.972656 26.296875 27.089844 C 26.296875 27.199219 26.296875 27.3125 26.296875 27.421875 C 26.296875 27.480469 26.296875 27.539062 26.296875 27.601562 C 26.300781 28.078125 26.375 28.578125 26.707031 28.949219 C 27.042969 29.25 27.480469 29.324219 27.914062 29.320312 C 27.964844 29.320312 27.964844 29.320312 28.019531 29.324219 C 28.398438 29.320312 28.789062 29.230469 29.082031 28.980469 C 29.445312 28.59375 29.503906 28.113281 29.503906 27.601562 C 29.503906 27.558594 29.503906 27.515625 29.503906 27.46875 C 29.503906 27.355469 29.503906 27.238281 29.503906 27.121094 C 29.503906 27 29.507812 26.878906 29.507812 26.757812 C 29.507812 26.527344 29.507812 26.296875 29.511719 26.070312 C 29.511719 25.757812 29.511719 25.449219 29.515625 25.136719 C 29.515625 24.648438 29.519531 24.160156 29.519531 23.671875 C 30.171875 23.671875 30.828125 23.671875 31.5 23.671875 C 31.503906 24.753906 31.503906 24.753906 31.503906 25.210938 C 31.503906 25.527344 31.503906 25.839844 31.507812 26.15625 C 31.507812 26.382812 31.507812 26.613281 31.507812 26.84375 C 31.507812 26.964844 31.507812 27.085938 31.507812 27.207031 C 31.515625 28.140625 31.464844 29.023438 30.808594 29.761719 C 30.792969 29.78125 30.773438 29.800781 30.757812 29.824219 C 30.199219 30.425781 29.265625 30.675781 28.46875 30.71875 C 27.84375 30.746094 27.195312 30.765625 26.578125 30.628906 C 26.558594 30.625 26.535156 30.621094 26.507812 30.613281 C 26.027344 30.507812 25.585938 30.3125 25.199219 30 C 25.179688 29.984375 25.164062 29.972656 25.144531 29.957031 C 24.640625 29.566406 24.40625 28.886719 24.3125 28.28125 C 24.289062 28.089844 24.292969 27.902344 24.292969 27.710938 C 24.292969 27.667969 24.292969 27.625 24.292969 27.578125 C 24.292969 27.460938 24.292969 27.339844 24.292969 27.222656 C 24.292969 27.097656 24.292969 26.972656 24.292969 26.847656 C 24.292969 26.609375 24.296875 26.375 24.296875 26.136719 C 24.296875 25.816406 24.296875 25.5 24.296875 25.179688 C 24.296875 24.675781 24.300781 24.171875 24.300781 23.671875 Z M 24.300781 23.671875 "/>
<path style=" stroke:none;fill-rule:nonzero;fill:rgb(100%,0%,0%);fill-opacity:1;" d="M 61.648438 47.039062 C 65.378906 47.039062 65.378906 47.039062 66 47.210938 C 66.027344 47.21875 66.054688 47.226562 66.082031 47.234375 C 66.621094 47.386719 67.070312 47.636719 67.46875 48.03125 C 67.492188 48.054688 67.515625 48.074219 67.539062 48.097656 C 67.796875 48.367188 67.960938 48.667969 68.078125 49.015625 C 68.085938 49.035156 68.09375 49.054688 68.101562 49.078125 C 68.230469 49.480469 68.265625 49.882812 68.261719 50.300781 C 68.261719 50.335938 68.261719 50.335938 68.261719 50.375 C 68.257812 51.292969 67.984375 52.082031 67.34375 52.757812 C 65.832031 54.207031 63.546875 53.820312 61.648438 53.820312 C 61.648438 51.582031 61.648438 49.34375 61.648438 47.039062 Z M 63.359375 48.300781 C 63.359375 49.707031 63.359375 51.113281 63.359375 52.558594 C 64.75 52.59375 64.75 52.59375 65.898438 51.949219 C 66.34375 51.480469 66.496094 50.890625 66.488281 50.257812 C 66.46875 49.738281 66.277344 49.296875 65.941406 48.898438 C 65.1875 48.238281 64.335938 48.300781 63.359375 48.300781 Z M 63.359375 48.300781 "/>
<path style=" stroke:none;fill-rule:nonzero;fill:rgb(100%,0%,0%);fill-opacity:1;" d="M 22.171875 35.039062 C 26.984375 35.039062 26.984375 35.039062 27.988281 36.03125 C 28.085938 36.136719 28.175781 36.242188 28.261719 36.359375 C 28.277344 36.382812 28.292969 36.40625 28.308594 36.425781 C 28.808594 37.183594 28.878906 38.269531 28.710938 39.132812 C 28.59375 39.679688 28.371094 40.175781 27.988281 40.589844 C 27.976562 40.605469 27.960938 40.621094 27.945312 40.636719 C 27.25 41.398438 26.296875 41.71875 25.289062 41.820312 C 24.261719 41.820312 23.230469 41.820312 22.171875 41.820312 C 22.171875 39.582031 22.171875 37.34375 22.171875 35.039062 Z M 23.851562 36.300781 C 23.851562 37.707031 23.851562 39.113281 23.851562 40.558594 C 25.230469 40.589844 25.230469 40.589844 26.390625 39.957031 C 26.871094 39.449219 26.988281 38.867188 26.976562 38.195312 C 26.960938 37.691406 26.777344 37.25 26.425781 36.886719 C 25.707031 36.242188 24.789062 36.300781 23.851562 36.300781 Z M 23.851562 36.300781 "/>
<path style=" stroke:none;fill-rule:nonzero;fill:rgb(100%,0%,0%);fill-opacity:1;" d="M 17.941406 47.011719 C 17.960938 47.015625 17.984375 47.019531 18.003906 47.023438 C 18.335938 47.105469 18.632812 47.234375 18.929688 47.398438 C 18.960938 47.417969 18.988281 47.433594 19.019531 47.449219 C 19.726562 47.867188 20.191406 48.570312 20.398438 49.351562 C 20.648438 50.320312 20.546875 51.417969 20.042969 52.296875 C 19.535156 53.089844 18.78125 53.640625 17.859375 53.84375 C 17.019531 54.015625 16.136719 54 15.328125 53.699219 C 15.292969 53.6875 15.257812 53.675781 15.222656 53.660156 C 14.453125 53.355469 13.839844 52.738281 13.480469 52 C 13.359375 51.710938 13.269531 51.402344 13.230469 51.089844 C 13.226562 51.066406 13.222656 51.039062 13.21875 51.015625 C 13.113281 50.054688 13.292969 49.027344 13.894531 48.253906 C 14.53125 47.472656 15.410156 47.027344 16.410156 46.925781 C 16.921875 46.886719 17.441406 46.894531 17.941406 47.011719 Z M 15.511719 48.839844 C 15.046875 49.390625 14.964844 50.066406 15 50.761719 C 15.050781 51.332031 15.285156 51.851562 15.71875 52.230469 C 16.117188 52.558594 16.628906 52.628906 17.128906 52.589844 C 17.621094 52.523438 18.035156 52.296875 18.339844 51.898438 C 18.742188 51.285156 18.808594 50.507812 18.671875 49.796875 C 18.566406 49.316406 18.363281 48.878906 17.96875 48.570312 C 17.1875 48.078125 16.152344 48.148438 15.511719 48.839844 Z M 15.511719 48.839844 "/>
<path style=" stroke:none;fill-rule:nonzero;fill:rgb(100%,0%,0%);fill-opacity:1;" d="M 12.449219 35.398438 C 12.480469 35.417969 12.507812 35.433594 12.539062 35.449219 C 13.214844 35.851562 13.707031 36.539062 13.914062 37.292969 C 14.171875 38.3125 14.070312 39.394531 13.558594 40.320312 C 13.085938 41.085938 12.324219 41.605469 11.460938 41.828125 C 10.605469 42.03125 9.679688 42.003906 8.851562 41.699219 C 8.820312 41.6875 8.789062 41.679688 8.757812 41.667969 C 8.316406 41.5 7.949219 41.222656 7.621094 40.890625 C 7.59375 40.863281 7.570312 40.839844 7.542969 40.8125 C 7.042969 40.285156 6.75 39.523438 6.742188 38.796875 C 6.742188 38.777344 6.742188 38.753906 6.742188 38.730469 C 6.742188 38.6875 6.742188 38.640625 6.742188 38.59375 C 6.742188 38.523438 6.742188 38.457031 6.742188 38.386719 C 6.738281 37.980469 6.785156 37.582031 6.921875 37.195312 C 6.929688 37.175781 6.9375 37.152344 6.945312 37.128906 C 7.246094 36.289062 7.894531 35.625 8.699219 35.246094 C 9.867188 34.730469 11.335938 34.777344 12.449219 35.398438 Z M 9.058594 36.808594 C 8.609375 37.378906 8.460938 38.054688 8.527344 38.769531 C 8.589844 39.304688 8.773438 39.804688 9.175781 40.179688 C 9.660156 40.550781 10.191406 40.652344 10.792969 40.578125 C 11.257812 40.480469 11.644531 40.222656 11.90625 39.828125 C 12.28125 39.1875 12.339844 38.410156 12.179688 37.695312 C 12.046875 37.222656 11.816406 36.753906 11.375 36.5 C 10.644531 36.113281 9.636719 36.160156 9.058594 36.808594 Z M 9.058594 36.808594 "/>
<path style=" stroke:none;fill-rule:nonzero;fill:rgb(100%,0%,0%);fill-opacity:1;" d="M 38.941406 47.039062 C 43.238281 47.039062 43.238281 47.039062 43.914062 47.6875 C 44.164062 47.964844 44.324219 48.316406 44.339844 48.691406 C 44.339844 48.71875 44.34375 48.746094 44.34375 48.777344 C 44.359375 49.296875 44.203125 49.773438 43.847656 50.152344 C 43.554688 50.441406 43.167969 50.644531 42.78125 50.761719 C 42.847656 50.8125 42.917969 50.863281 42.984375 50.910156 C 43.378906 51.203125 43.65625 51.546875 43.933594 51.949219 C 44.015625 52.074219 44.105469 52.195312 44.191406 52.320312 C 44.226562 52.371094 44.261719 52.421875 44.296875 52.472656 C 44.390625 52.605469 44.484375 52.742188 44.578125 52.875 C 44.625 52.9375 44.667969 53 44.710938 53.0625 C 44.746094 53.109375 44.78125 53.160156 44.816406 53.207031 C 44.875 53.292969 44.933594 53.375 44.992188 53.457031 C 45.007812 53.480469 45.027344 53.507812 45.046875 53.535156 C 45.0625 53.558594 45.082031 53.582031 45.097656 53.609375 C 45.113281 53.628906 45.128906 53.652344 45.144531 53.671875 C 45.179688 53.730469 45.179688 53.730469 45.210938 53.820312 C 44.960938 53.828125 44.710938 53.832031 44.460938 53.835938 C 44.34375 53.839844 44.226562 53.839844 44.109375 53.84375 C 44 53.847656 43.886719 53.851562 43.773438 53.851562 C 43.730469 53.851562 43.6875 53.851562 43.648438 53.855469 C 43.316406 53.867188 43.316406 53.867188 43.1875 53.753906 C 43.121094 53.667969 43.070312 53.582031 43.019531 53.488281 C 42.988281 53.441406 42.953125 53.390625 42.917969 53.339844 C 42.886719 53.289062 42.851562 53.238281 42.820312 53.1875 C 42.800781 53.160156 42.78125 53.132812 42.765625 53.101562 C 42.6875 52.988281 42.613281 52.871094 42.535156 52.753906 C 42.34375 52.460938 42.152344 52.167969 41.949219 51.882812 C 41.929688 51.851562 41.929688 51.851562 41.90625 51.820312 C 41.714844 51.550781 41.5625 51.410156 41.25 51.269531 C 40.953125 51.253906 40.953125 51.253906 40.648438 51.238281 C 40.648438 52.089844 40.648438 52.941406 40.648438 53.820312 C 40.085938 53.820312 39.519531 53.820312 38.941406 53.820312 C 38.941406 51.582031 38.941406 49.34375 38.941406 47.039062 Z M 40.648438 48.210938 C 40.648438 48.8125 40.648438 49.417969 40.648438 50.039062 C 40.890625 50.042969 40.890625 50.042969 41.140625 50.046875 C 41.191406 50.046875 41.238281 50.050781 41.292969 50.050781 C 41.664062 50.054688 41.976562 49.988281 42.269531 49.738281 C 42.457031 49.542969 42.542969 49.339844 42.554688 49.070312 C 42.546875 48.820312 42.492188 48.628906 42.3125 48.453125 C 42.0625 48.257812 41.789062 48.203125 41.480469 48.207031 C 41.457031 48.207031 41.4375 48.207031 41.414062 48.207031 C 41.335938 48.207031 41.257812 48.207031 41.179688 48.207031 C 40.917969 48.210938 40.917969 48.210938 40.648438 48.210938 Z M 40.648438 48.210938 "/>
<path style=" stroke:none;fill-rule:nonzero;fill:rgb(100%,0%,0%);fill-opacity:1;" d="M 35.609375 35.039062 C 39.914062 35.039062 39.914062 35.039062 40.589844 35.699219 C 40.882812 36.046875 40.992188 36.417969 40.988281 36.867188 C 40.988281 36.894531 40.988281 36.925781 40.988281 36.953125 C 40.984375 37.160156 40.96875 37.339844 40.890625 37.53125 C 40.878906 37.558594 40.867188 37.589844 40.851562 37.617188 C 40.601562 38.171875 40.171875 38.46875 39.628906 38.699219 C 39.589844 38.71875 39.550781 38.734375 39.511719 38.75 C 39.464844 38.769531 39.464844 38.769531 39.421875 38.789062 C 39.4375 38.796875 39.453125 38.804688 39.46875 38.8125 C 39.671875 38.917969 39.828125 39.050781 39.988281 39.210938 C 40.007812 39.226562 40.023438 39.242188 40.039062 39.257812 C 40.175781 39.386719 40.289062 39.527344 40.398438 39.683594 C 40.417969 39.707031 40.433594 39.730469 40.453125 39.757812 C 40.59375 39.953125 40.730469 40.148438 40.863281 40.347656 C 40.976562 40.511719 41.089844 40.675781 41.207031 40.835938 C 41.375 41.0625 41.539062 41.296875 41.695312 41.527344 C 41.71875 41.5625 41.742188 41.597656 41.765625 41.632812 C 41.851562 41.753906 41.851562 41.753906 41.851562 41.820312 C 41.601562 41.832031 41.355469 41.84375 41.105469 41.847656 C 40.992188 41.851562 40.875 41.855469 40.761719 41.859375 C 40.027344 41.898438 40.027344 41.898438 39.828125 41.777344 C 39.707031 41.65625 39.644531 41.515625 39.578125 41.359375 C 39.511719 41.214844 39.417969 41.085938 39.324219 40.953125 C 39.289062 40.898438 39.253906 40.839844 39.214844 40.785156 C 39.195312 40.753906 39.179688 40.726562 39.160156 40.699219 C 39.121094 40.640625 39.085938 40.582031 39.046875 40.527344 C 38.777344 40.113281 38.777344 40.113281 38.488281 39.71875 C 38.472656 39.699219 38.460938 39.683594 38.449219 39.667969 C 38.296875 39.480469 38.140625 39.359375 37.921875 39.269531 C 37.621094 39.253906 37.621094 39.253906 37.320312 39.238281 C 37.320312 40.089844 37.320312 40.941406 37.320312 41.820312 C 36.753906 41.820312 36.191406 41.820312 35.609375 41.820312 C 35.609375 39.582031 35.609375 37.34375 35.609375 35.039062 Z M 37.320312 36.210938 C 37.320312 36.8125 37.320312 37.417969 37.320312 38.039062 C 37.5625 38.042969 37.5625 38.042969 37.808594 38.046875 C 37.859375 38.046875 37.910156 38.050781 37.960938 38.050781 C 38.328125 38.054688 38.628906 37.996094 38.910156 37.738281 C 39.105469 37.546875 39.195312 37.347656 39.21875 37.074219 C 39.203125 36.84375 39.136719 36.613281 38.96875 36.449219 C 38.625 36.195312 38.234375 36.199219 37.824219 36.203125 C 37.65625 36.207031 37.492188 36.207031 37.320312 36.210938 Z M 37.320312 36.210938 "/>
<path style=" stroke:none;fill-rule:nonzero;fill:rgb(100%,0%,0%);fill-opacity:1;" d="M 15.238281 35.039062 C 19.507812 35.039062 19.507812 35.039062 20.15625 35.664062 C 20.175781 35.6875 20.199219 35.707031 20.21875 35.730469 C 20.238281 35.746094 20.253906 35.765625 20.273438 35.78125 C 20.59375 36.117188 20.628906 36.597656 20.621094 37.035156 C 20.597656 37.523438 20.371094 37.929688 20.015625 38.257812 C 19.765625 38.476562 19.476562 38.609375 19.167969 38.726562 C 19.085938 38.75 19.085938 38.75 19.050781 38.789062 C 19.066406 38.800781 19.085938 38.808594 19.105469 38.820312 C 19.3125 38.9375 19.480469 39.074219 19.648438 39.238281 C 19.671875 39.261719 19.695312 39.285156 19.722656 39.308594 C 19.949219 39.546875 20.128906 39.820312 20.316406 40.089844 C 20.402344 40.21875 20.492188 40.34375 20.578125 40.46875 C 20.613281 40.519531 20.648438 40.570312 20.683594 40.621094 C 20.773438 40.75 20.863281 40.875 20.957031 41.003906 C 21.007812 41.082031 21.0625 41.15625 21.113281 41.230469 C 21.175781 41.320312 21.234375 41.40625 21.296875 41.492188 C 21.320312 41.527344 21.347656 41.5625 21.371094 41.597656 C 21.390625 41.628906 21.414062 41.660156 21.4375 41.691406 C 21.480469 41.761719 21.480469 41.761719 21.480469 41.820312 C 19.878906 42.023438 19.878906 42.023438 19.4375 41.765625 C 19.101562 41.492188 18.910156 41.078125 18.734375 40.691406 C 18.667969 40.539062 18.585938 40.398438 18.5 40.261719 C 18.480469 40.230469 18.480469 40.230469 18.460938 40.203125 C 18.347656 40.027344 18.222656 39.855469 18.089844 39.691406 C 18.0625 39.65625 18.0625 39.65625 18.035156 39.621094 C 17.890625 39.445312 17.742188 39.324219 17.519531 39.269531 C 17.332031 39.261719 17.144531 39.25 16.949219 39.238281 C 16.949219 40.089844 16.949219 40.941406 16.949219 41.820312 C 16.386719 41.820312 15.820312 41.820312 15.238281 41.820312 C 15.238281 39.582031 15.238281 37.34375 15.238281 35.039062 Z M 16.949219 36.210938 C 16.949219 36.8125 16.949219 37.417969 16.949219 38.039062 C 17.191406 38.042969 17.191406 38.042969 17.4375 38.046875 C 17.488281 38.046875 17.539062 38.050781 17.589844 38.050781 C 17.960938 38.054688 18.261719 37.996094 18.539062 37.738281 C 18.734375 37.546875 18.820312 37.347656 18.839844 37.074219 C 18.839844 36.847656 18.773438 36.65625 18.628906 36.480469 C 18.394531 36.253906 18.066406 36.203125 17.753906 36.207031 C 17.734375 36.207031 17.714844 36.207031 17.695312 36.207031 C 17.617188 36.207031 17.542969 36.207031 17.464844 36.207031 C 17.210938 36.210938 17.210938 36.210938 16.949219 36.210938 Z M 16.949219 36.210938 "/>
<path style=" stroke:none;fill-rule:nonzero;fill:rgb(100%,0%,0%);fill-opacity:1;" d="M 6.75 23.671875 C 7.492188 23.671875 8.234375 23.671875 9 23.671875 C 9.144531 23.921875 9.289062 24.175781 9.425781 24.429688 C 9.460938 24.492188 9.492188 24.554688 9.527344 24.621094 C 9.542969 24.652344 9.5625 24.683594 9.578125 24.714844 C 9.644531 24.839844 9.710938 24.960938 9.777344 25.082031 C 9.8125 25.144531 9.84375 25.203125 9.875 25.261719 C 9.957031 25.410156 10.035156 25.558594 10.117188 25.707031 C 10.304688 26.039062 10.46875 26.367188 10.589844 26.730469 C 10.597656 26.703125 10.605469 26.675781 10.617188 26.648438 C 10.710938 26.363281 10.84375 26.105469 10.996094 25.84375 C 11.136719 25.597656 11.273438 25.351562 11.40625 25.101562 C 11.445312 25.023438 11.488281 24.945312 11.527344 24.871094 C 11.539062 24.851562 11.546875 24.832031 11.558594 24.816406 C 11.679688 24.582031 11.808594 24.351562 11.941406 24.121094 C 11.953125 24.097656 11.964844 24.078125 11.976562 24.058594 C 12.171875 23.707031 12.171875 23.707031 12.210938 23.671875 C 12.273438 23.667969 12.339844 23.667969 12.40625 23.667969 C 12.425781 23.667969 12.445312 23.667969 12.46875 23.667969 C 12.535156 23.667969 12.605469 23.667969 12.671875 23.667969 C 12.71875 23.667969 12.765625 23.667969 12.8125 23.667969 C 12.9375 23.667969 13.0625 23.667969 13.183594 23.667969 C 13.3125 23.667969 13.4375 23.667969 13.566406 23.667969 C 13.8125 23.667969 14.0625 23.667969 14.308594 23.671875 C 14.265625 23.78125 14.21875 23.875 14.152344 23.976562 C 14.125 24.019531 14.125 24.019531 14.09375 24.066406 C 14.074219 24.097656 14.054688 24.128906 14.03125 24.164062 C 14.011719 24.195312 13.988281 24.230469 13.96875 24.265625 C 13.921875 24.332031 13.878906 24.402344 13.835938 24.46875 C 13.742188 24.613281 13.648438 24.761719 13.554688 24.90625 C 13.523438 24.960938 13.488281 25.015625 13.453125 25.066406 C 13.4375 25.09375 13.417969 25.121094 13.402344 25.148438 C 13.3125 25.285156 13.226562 25.421875 13.140625 25.558594 C 13.121094 25.585938 13.105469 25.613281 13.085938 25.640625 C 13 25.78125 12.910156 25.917969 12.824219 26.058594 C 12.644531 26.339844 12.464844 26.621094 12.285156 26.902344 C 12.136719 27.144531 11.980469 27.382812 11.828125 27.625 C 11.816406 27.648438 11.800781 27.671875 11.785156 27.699219 C 11.730469 27.78125 11.730469 27.78125 11.675781 27.847656 C 11.472656 28.109375 11.488281 28.371094 11.492188 28.6875 C 11.492188 28.742188 11.492188 28.796875 11.492188 28.851562 C 11.492188 28.996094 11.492188 29.140625 11.492188 29.285156 C 11.492188 29.460938 11.492188 29.636719 11.488281 29.808594 C 11.488281 30.074219 11.488281 30.335938 11.488281 30.601562 C 10.828125 30.601562 10.164062 30.601562 9.480469 30.601562 C 9.484375 30.429688 9.484375 30.261719 9.488281 30.085938 C 9.488281 29.976562 9.488281 29.867188 9.488281 29.757812 C 9.488281 29.585938 9.492188 29.414062 9.496094 29.242188 C 9.515625 28.316406 9.515625 28.316406 9.085938 27.519531 C 8.988281 27.398438 8.914062 27.265625 8.835938 27.136719 C 8.804688 27.082031 8.769531 27.03125 8.738281 26.980469 C 8.632812 26.8125 8.53125 26.644531 8.429688 26.476562 C 8.28125 26.230469 8.132812 25.988281 7.980469 25.742188 C 7.851562 25.535156 7.722656 25.328125 7.59375 25.121094 C 7.574219 25.085938 7.554688 25.054688 7.535156 25.019531 C 7.441406 24.867188 7.34375 24.710938 7.25 24.558594 C 7.207031 24.488281 7.164062 24.414062 7.117188 24.34375 C 7.089844 24.292969 7.058594 24.242188 7.027344 24.195312 C 6.914062 24.011719 6.914062 24.011719 6.796875 23.832031 C 6.75 23.761719 6.75 23.761719 6.75 23.671875 Z M 6.75 23.671875 "/>
<path style=" stroke:none;fill-rule:nonzero;fill:rgb(100%,0%,0%);fill-opacity:1;" d="M 56.011719 47.039062 C 57.4375 47.039062 58.859375 47.039062 60.328125 47.039062 C 60.328125 47.457031 60.328125 47.871094 60.328125 48.300781 C 59.46875 48.300781 58.605469 48.300781 57.71875 48.300781 C 57.71875 48.785156 57.71875 49.269531 57.71875 49.769531 C 58.523438 49.769531 59.324219 49.769531 60.148438 49.769531 C 60.148438 50.1875 60.148438 50.601562 60.148438 51.03125 C 59.347656 51.03125 58.546875 51.03125 57.71875 51.03125 C 57.71875 51.535156 57.71875 52.039062 57.71875 52.558594 C 58.628906 52.558594 59.542969 52.558594 60.480469 52.558594 C 60.480469 52.976562 60.480469 53.390625 60.480469 53.820312 C 59.003906 53.820312 57.53125 53.820312 56.011719 53.820312 C 56.011719 51.582031 56.011719 49.34375 56.011719 47.039062 Z M 56.011719 47.039062 "/>
<path style=" stroke:none;fill-rule:nonzero;fill:rgb(100%,0%,0%);fill-opacity:1;" d="M 29.96875 35.039062 C 31.394531 35.039062 32.820312 35.039062 34.289062 35.039062 C 34.289062 35.457031 34.289062 35.871094 34.289062 36.300781 C 33.429688 36.300781 32.566406 36.300781 31.679688 36.300781 C 31.679688 36.785156 31.679688 37.269531 31.679688 37.769531 C 32.480469 37.769531 33.285156 37.769531 34.109375 37.769531 C 34.109375 38.1875 34.109375 38.601562 34.109375 39.03125 C 33.308594 39.03125 32.507812 39.03125 31.679688 39.03125 C 31.679688 39.535156 31.679688 40.039062 31.679688 40.558594 C 32.589844 40.558594 33.5 40.558594 34.441406 40.558594 C 34.441406 40.976562 34.441406 41.390625 34.441406 41.820312 C 32.964844 41.820312 31.488281 41.820312 29.96875 41.820312 C 29.96875 39.582031 29.96875 37.34375 29.96875 35.039062 Z M 29.96875 35.039062 "/>
<path style=" stroke:none;fill-rule:nonzero;fill:rgb(100%,0%,0%);fill-opacity:1;" d="M 10.726562 46.914062 C 10.75 46.914062 10.769531 46.914062 10.792969 46.914062 C 12.046875 46.914062 12.046875 46.914062 12.539062 47.160156 C 12.539062 47.65625 12.539062 48.148438 12.539062 48.660156 C 12.421875 48.621094 12.3125 48.582031 12.199219 48.527344 C 11.558594 48.257812 10.683594 48.167969 10.019531 48.390625 C 9.984375 48.402344 9.945312 48.414062 9.90625 48.425781 C 9.378906 48.613281 8.996094 48.964844 8.75 49.460938 C 8.488281 50.03125 8.480469 50.6875 8.671875 51.277344 C 8.867188 51.777344 9.195312 52.15625 9.6875 52.375 C 10.035156 52.511719 10.386719 52.570312 10.757812 52.570312 C 10.804688 52.570312 10.804688 52.570312 10.851562 52.570312 C 11.429688 52.558594 11.957031 52.414062 12.480469 52.171875 C 12.5 52.171875 12.519531 52.171875 12.539062 52.171875 C 12.539062 52.636719 12.539062 53.101562 12.539062 53.578125 C 12.355469 53.664062 12.1875 53.730469 11.996094 53.777344 C 11.96875 53.785156 11.945312 53.792969 11.917969 53.796875 C 10.800781 54.078125 9.441406 54.050781 8.398438 53.519531 C 8.367188 53.503906 8.335938 53.488281 8.304688 53.472656 C 7.609375 53.089844 7.09375 52.433594 6.867188 51.675781 C 6.601562 50.726562 6.679688 49.664062 7.136719 48.785156 C 7.636719 47.917969 8.457031 47.316406 9.417969 47.054688 C 9.851562 46.945312 10.28125 46.914062 10.726562 46.914062 Z M 10.726562 46.914062 "/>
<path style=" stroke:none;fill-rule:nonzero;fill:rgb(100%,0%,0%);fill-opacity:1;" d="M 30.089844 47.039062 C 31.515625 47.039062 32.941406 47.039062 34.410156 47.039062 C 34.410156 47.457031 34.410156 47.871094 34.410156 48.300781 C 33.539062 48.300781 32.667969 48.300781 31.769531 48.300781 C 31.769531 48.835938 31.769531 49.371094 31.769531 49.921875 C 32.570312 49.921875 33.375 49.921875 34.199219 49.921875 C 34.199219 50.335938 34.199219 50.75 34.199219 51.179688 C 33.398438 51.179688 32.597656 51.179688 31.769531 51.179688 C 31.769531 52.050781 31.769531 52.921875 31.769531 53.820312 C 31.214844 53.820312 30.660156 53.820312 30.089844 53.820312 C 30.089844 51.582031 30.089844 49.34375 30.089844 47.039062 Z M 30.089844 47.039062 "/>
<path style=" stroke:none;fill-rule:nonzero;fill:rgb(100%,0%,0%);fill-opacity:1;" d="M 34.980469 47.039062 C 35.949219 47.039062 36.921875 47.039062 37.921875 47.039062 C 37.921875 47.4375 37.921875 47.832031 37.921875 48.238281 C 37.710938 48.238281 37.503906 48.238281 37.289062 48.238281 C 37.289062 49.683594 37.289062 51.128906 37.289062 52.621094 C 37.496094 52.621094 37.707031 52.621094 37.921875 52.621094 C 37.921875 53.015625 37.921875 53.410156 37.921875 53.820312 C 36.949219 53.820312 35.980469 53.820312 34.980469 53.820312 C 34.980469 53.425781 34.980469 53.027344 34.980469 52.621094 C 35.179688 52.621094 35.375 52.621094 35.578125 52.621094 C 35.578125 51.175781 35.578125 49.730469 35.578125 48.238281 C 35.382812 48.238281 35.183594 48.238281 34.980469 48.238281 C 34.980469 47.84375 34.980469 47.449219 34.980469 47.039062 Z M 34.980469 47.039062 "/>
<path style=" stroke:none;fill-rule:nonzero;fill:rgb(100%,0%,0%);fill-opacity:1;" d="M 51.632812 35.277344 C 51.835938 35.277344 52.035156 35.277344 52.234375 35.277344 C 52.921875 35.277344 53.605469 35.277344 54.289062 35.277344 C 54.457031 35.28125 54.625 35.28125 54.792969 35.28125 C 54.988281 35.28125 55.179688 35.28125 55.375 35.28125 C 55.472656 35.285156 55.566406 35.285156 55.664062 35.285156 C 56.378906 35.28125 56.378906 35.28125 56.671875 35.488281 C 56.699219 35.503906 56.726562 35.519531 56.753906 35.539062 C 56.777344 35.550781 56.796875 35.566406 56.820312 35.578125 C 56.820312 35.601562 56.820312 35.621094 56.820312 35.640625 C 56.742188 35.675781 56.667969 35.710938 56.589844 35.742188 C 56.570312 35.753906 56.550781 35.761719 56.527344 35.773438 C 56.109375 35.953125 55.574219 35.882812 55.125 35.882812 C 55.046875 35.882812 54.972656 35.882812 54.894531 35.882812 C 54.707031 35.882812 54.519531 35.882812 54.332031 35.882812 C 54.183594 35.882812 54.03125 35.882812 53.878906 35.882812 C 53.84375 35.882812 53.84375 35.882812 53.8125 35.882812 C 53.769531 35.882812 53.722656 35.882812 53.679688 35.882812 C 53.265625 35.882812 52.855469 35.882812 52.441406 35.882812 C 52.089844 35.882812 51.734375 35.882812 51.382812 35.882812 C 50.96875 35.882812 50.558594 35.882812 50.148438 35.882812 C 50.105469 35.882812 50.058594 35.882812 50.015625 35.882812 C 49.996094 35.882812 49.972656 35.882812 49.949219 35.882812 C 49.800781 35.882812 49.648438 35.882812 49.496094 35.882812 C 49.292969 35.882812 49.085938 35.882812 48.882812 35.882812 C 48.808594 35.882812 48.734375 35.882812 48.660156 35.882812 C 47.554688 35.886719 47.554688 35.886719 47.296875 35.742188 C 47.269531 35.726562 47.269531 35.726562 47.238281 35.714844 C 47.191406 35.691406 47.144531 35.664062 47.101562 35.640625 C 47.101562 35.621094 47.101562 35.601562 47.101562 35.578125 C 47.171875 35.53125 47.171875 35.53125 47.269531 35.476562 C 47.300781 35.457031 47.332031 35.4375 47.367188 35.417969 C 47.554688 35.320312 47.691406 35.300781 47.902344 35.296875 C 47.929688 35.296875 47.960938 35.296875 47.992188 35.296875 C 48.09375 35.292969 48.195312 35.292969 48.296875 35.292969 C 48.371094 35.289062 48.445312 35.289062 48.519531 35.289062 C 49.558594 35.273438 50.597656 35.277344 51.632812 35.277344 Z M 51.632812 35.277344 "/>
<path style=" stroke:none;fill-rule:nonzero;fill:rgb(100%,0%,0%);fill-opacity:1;" d="M 47.878906 28.824219 C 47.910156 28.824219 47.9375 28.824219 47.96875 28.824219 C 48 28.824219 48.035156 28.824219 48.066406 28.824219 C 48.117188 28.824219 48.117188 28.824219 48.171875 28.824219 C 48.265625 28.824219 48.363281 28.824219 48.457031 28.824219 C 48.5625 28.824219 48.664062 28.824219 48.769531 28.824219 C 48.992188 28.824219 49.21875 28.824219 49.445312 28.824219 C 49.585938 28.824219 49.726562 28.824219 49.867188 28.824219 C 50.257812 28.824219 50.648438 28.824219 51.039062 28.824219 C 51.0625 28.824219 51.085938 28.824219 51.113281 28.824219 C 51.152344 28.824219 51.152344 28.824219 51.1875 28.824219 C 51.238281 28.824219 51.289062 28.824219 51.339844 28.824219 C 51.367188 28.824219 51.390625 28.824219 51.417969 28.824219 C 51.824219 28.824219 52.230469 28.820312 52.640625 28.820312 C 53.058594 28.820312 53.476562 28.820312 53.894531 28.820312 C 54.128906 28.820312 54.363281 28.820312 54.597656 28.820312 C 54.800781 28.820312 55 28.820312 55.199219 28.820312 C 55.300781 28.820312 55.402344 28.820312 55.503906 28.820312 C 55.617188 28.820312 55.726562 28.820312 55.835938 28.820312 C 55.871094 28.820312 55.902344 28.820312 55.933594 28.816406 C 56.210938 28.820312 56.421875 28.886719 56.65625 29.03125 C 56.703125 29.058594 56.703125 29.058594 56.75 29.085938 C 56.785156 29.109375 56.785156 29.109375 56.820312 29.128906 C 56.730469 29.203125 56.640625 29.25 56.53125 29.296875 C 56.503906 29.3125 56.476562 29.324219 56.445312 29.335938 C 56.300781 29.398438 56.171875 29.40625 56.019531 29.410156 C 55.976562 29.410156 55.976562 29.410156 55.9375 29.410156 C 55.847656 29.414062 55.757812 29.414062 55.671875 29.417969 C 55.625 29.417969 55.625 29.417969 55.578125 29.417969 C 54.925781 29.433594 54.269531 29.433594 53.617188 29.433594 C 53.460938 29.433594 53.304688 29.433594 53.148438 29.433594 C 52.886719 29.433594 52.621094 29.433594 52.359375 29.433594 C 52.058594 29.433594 51.761719 29.433594 51.460938 29.433594 C 51.199219 29.433594 50.9375 29.433594 50.675781 29.433594 C 50.519531 29.433594 50.367188 29.433594 50.210938 29.433594 C 49.84375 29.433594 49.476562 29.433594 49.109375 29.429688 C 49.015625 29.429688 48.925781 29.429688 48.832031 29.429688 C 48.675781 29.429688 48.515625 29.425781 48.359375 29.425781 C 48.296875 29.425781 48.238281 29.425781 48.179688 29.425781 C 47.847656 29.421875 47.574219 29.414062 47.28125 29.25 C 47.242188 29.230469 47.203125 29.214844 47.167969 29.195312 C 47.144531 29.183594 47.121094 29.171875 47.101562 29.160156 C 47.179688 29.066406 47.273438 29.019531 47.382812 28.960938 C 47.414062 28.941406 47.449219 28.925781 47.484375 28.90625 C 47.617188 28.84375 47.734375 28.828125 47.878906 28.824219 Z M 47.878906 28.824219 "/>
<path style=" stroke:none;fill-rule:nonzero;fill:rgb(100%,0%,0%);fill-opacity:1;" d="M 48.414062 32.042969 C 48.515625 32.042969 48.621094 32.042969 48.726562 32.042969 C 48.929688 32.039062 49.136719 32.039062 49.339844 32.039062 C 49.507812 32.042969 49.671875 32.042969 49.839844 32.039062 C 49.875 32.039062 49.875 32.039062 49.910156 32.039062 C 49.960938 32.039062 50.007812 32.039062 50.058594 32.039062 C 50.507812 32.039062 50.960938 32.039062 51.414062 32.042969 C 51.800781 32.042969 52.1875 32.042969 52.574219 32.039062 C 53.027344 32.039062 53.476562 32.039062 53.925781 32.039062 C 53.976562 32.039062 54.023438 32.039062 54.070312 32.039062 C 54.09375 32.039062 54.121094 32.039062 54.144531 32.039062 C 54.308594 32.039062 54.476562 32.039062 54.640625 32.039062 C 54.84375 32.039062 55.046875 32.039062 55.25 32.039062 C 55.351562 32.039062 55.457031 32.039062 55.558594 32.039062 C 56.019531 32.035156 56.371094 32.050781 56.761719 32.308594 C 56.78125 32.320312 56.800781 32.328125 56.820312 32.339844 C 56.820312 32.359375 56.820312 32.378906 56.820312 32.398438 C 56.398438 32.664062 56.007812 32.675781 55.523438 32.667969 C 55.417969 32.667969 55.3125 32.667969 55.207031 32.667969 C 55 32.671875 54.792969 32.667969 54.589844 32.667969 C 54.347656 32.667969 54.109375 32.667969 53.867188 32.667969 C 53.441406 32.667969 53.011719 32.667969 52.582031 32.664062 C 52.167969 32.664062 51.753906 32.664062 51.339844 32.664062 C 51.3125 32.664062 51.289062 32.664062 51.261719 32.664062 C 51.234375 32.664062 51.210938 32.664062 51.183594 32.664062 C 50.710938 32.664062 50.238281 32.660156 49.761719 32.660156 C 49.597656 32.660156 49.429688 32.660156 49.261719 32.660156 C 49.058594 32.660156 48.855469 32.660156 48.652344 32.660156 C 48.546875 32.65625 48.445312 32.65625 48.339844 32.65625 C 48.226562 32.65625 48.113281 32.65625 48 32.65625 C 47.96875 32.65625 47.9375 32.65625 47.902344 32.65625 C 47.691406 32.652344 47.53125 32.613281 47.339844 32.519531 C 47.316406 32.507812 47.292969 32.496094 47.269531 32.484375 C 47.210938 32.457031 47.15625 32.429688 47.101562 32.398438 C 47.464844 32.011719 47.914062 32.039062 48.414062 32.042969 Z M 48.414062 32.042969 "/>
<path style=" stroke:none;fill-rule:nonzero;fill:rgb(100%,0%,0%);fill-opacity:1;" d="M 49.308594 38.515625 C 49.460938 38.515625 49.609375 38.515625 49.761719 38.515625 C 50.015625 38.515625 50.269531 38.515625 50.523438 38.515625 C 50.816406 38.515625 51.105469 38.515625 51.398438 38.515625 C 51.652344 38.515625 51.902344 38.515625 52.15625 38.515625 C 52.304688 38.515625 52.457031 38.515625 52.605469 38.515625 C 52.949219 38.515625 53.289062 38.515625 53.632812 38.519531 C 53.699219 38.519531 53.761719 38.519531 53.828125 38.519531 C 53.941406 38.519531 54.054688 38.523438 54.164062 38.523438 C 54.195312 38.523438 54.226562 38.523438 54.261719 38.523438 C 54.488281 38.53125 54.625 38.601562 54.808594 38.730469 C 54.851562 38.753906 54.851562 38.753906 54.894531 38.777344 C 54.925781 38.796875 54.925781 38.796875 54.960938 38.820312 C 54.960938 38.839844 54.960938 38.859375 54.960938 38.878906 C 54.628906 39.066406 54.367188 39.121094 53.992188 39.117188 C 53.9375 39.117188 53.882812 39.117188 53.828125 39.121094 C 53.699219 39.121094 53.574219 39.121094 53.445312 39.121094 C 53.28125 39.121094 53.121094 39.121094 52.957031 39.121094 C 52.933594 39.121094 52.914062 39.121094 52.886719 39.121094 C 52.839844 39.121094 52.792969 39.121094 52.746094 39.121094 C 52.167969 39.125 51.585938 39.125 51.007812 39.125 C 50.785156 39.125 50.566406 39.125 50.34375 39.125 C 50.125 39.125 49.910156 39.125 49.691406 39.125 C 49.5625 39.125 49.433594 39.125 49.304688 39.125 C 48.992188 39.125 48.675781 39.125 48.359375 39.121094 C 48.339844 39.121094 48.320312 39.121094 48.300781 39.121094 C 48.167969 39.117188 48.035156 39.117188 47.902344 39.113281 C 47.855469 39.113281 47.855469 39.113281 47.804688 39.109375 C 47.53125 39.101562 47.339844 39.023438 47.128906 38.851562 C 47.128906 38.820312 47.128906 38.789062 47.128906 38.761719 C 47.191406 38.710938 47.191406 38.710938 47.273438 38.667969 C 47.300781 38.652344 47.328125 38.636719 47.355469 38.617188 C 47.847656 38.359375 48.757812 38.515625 49.308594 38.515625 Z M 49.308594 38.515625 "/>
</g>
</svg>
